<?xml version="1.0" encoding="UTF-8"?>
<svg width="128" height="128" viewBox="0 0 128 128" xmlns="http://www.w3.org/2000/svg">
  <defs>
    <linearGradient id="bg" x1="0" y1="0" x2="0" y2="1">
      <stop offset="0" stop-color="#3b82f6"/>
      <stop offset="1" stop-color="#1d4ed8"/>
    </linearGradient>
    <linearGradient id="beam" x1="0" y1="0" x2="1" y2="0">
      <stop offset="0" stop-color="#67e8f9" stop-opacity="0"/>
      <stop offset="0.5" stop-color="#67e8f9"/>
      <stop offset="1" stop-color="#67e8f9" stop-opacity="0"/>
    </linearGradient>
  </defs>
  <!-- rounded background tile -->
  <rect x="4" y="4" width="120" height="120" rx="26" fill="url(#bg)"/>
  <!-- document with folded corner -->
  <path d="M40 24 h34 l16 16 v64 a6 6 0 0 1 -6 6 H40 a6 6 0 0 1 -6 -6 V30 a6 6 0 0 1 6 -6 z" fill="#ffffff"/>
  <path d="M74 24 l16 16 h-12 a4 4 0 0 1 -4 -4 z" fill="#bfdbfe"/>
  <!-- text lines -->
  <g fill="#93a8c8">
    <rect x="44" y="52" width="40" height="5" rx="2.5"/>
    <rect x="44" y="64" width="40" height="5" rx="2.5"/>
    <rect x="44" y="76" width="28" height="5" rx="2.5"/>
  </g>
  <!-- scan beam -->
  <rect x="22" y="88" width="84" height="4" rx="2" fill="url(#beam)"/>
</svg>
